<?xml version="1.0" encoding="utf-8"?>
<!-- Generator: Adobe Illustrator 25.4.8, SVG Export Plug-In . SVG Version: 6.00 Build 0)  -->
<svg version="1.1" id="Layer_1" xmlns="http://www.w3.org/2000/svg" xmlns:xlink="http://www.w3.org/1999/xlink" x="0px" y="0px"
	 viewBox="0 0 3247 460" style="enable-background:new 0 0 3247 460;" xml:space="preserve">
<style type="text/css">
	.st0{enable-background:new    ;}
	.st1{fill:#0A406B;}
</style>
<g class="st0">
	<path class="st1" d="M260.3,62.4H11.8L0,136h5.5c0-1.7,35.7-51.7,77.4-51.7h23.5v198c0,40.8-13,79-13,79v3.8h85.4v-2.9
		c0-0.8-13.5-39.1-13.5-79.9v-198h23.5c42.9,0,77.8,51.7,77.8,51.7h5.5L260.3,62.4z"/>
	<path class="st1" d="M410.8,148.6c-0.4,0-0.8,0-1.3,0.1v-0.1c-29,0-52.5,15.1-66,36.6v-37l-65.4,6.7v3.8
		c8,10.7,14.9,34.9,14.9,59.3v90c0,32-16,53.4-16,53.4v3.8h82.4v-3.8c0,0-16-21.4-16-53.4v-67.7c0-32,12.1-54.4,33.2-57.9
		c0.1,18.9,15.2,33.9,34.1,33.9c18.5,0,33.6-15.1,33.6-34.1C444.4,162.9,429.7,148.6,410.8,148.6z"/>
	<path class="st1" d="M499.6,121.7c18.1,0,32.8-14.7,32.8-33.2c0-18.1-14.7-32.8-32.8-32.8c-18.5,0-33.2,14.7-33.2,32.8
		C466.4,107,481.1,121.7,499.6,121.7z M460.9,365.1h82.4v-3.8c0,0-16-21.4-16-53.4V148.2l-66.4,6.7v3.8c9.2,7.6,16,34.9,16,59.3v90
		c0,32-16,53.4-16,53.4V365.1z"/>
	<path class="st1" d="M849.1,121.7c18.1,0,32.8-14.7,32.8-33.2c0-18.1-14.7-32.8-32.8-32.8c-18.5,0-33.2,14.7-33.2,32.8
		C815.9,107,830.6,121.7,849.1,121.7z M810.4,365.1h82.4v-3.8c0,0-16-21.4-16-53.4V148.2l-66.4,6.7v3.8c9.2,7.6,16,34.9,16,59.3v90
		c0,32-16,53.4-16,53.4V365.1z"/>
	<path class="st1" d="M771.1,308v-84.5c0-45-27.8-75.3-68.1-75.3c-26.1,0-50,15.6-63.9,37v-37l-66.4,6.7v3.8
		c9.3,7.6,16,34.9,16,59.3v90c0,32-16,53.4-16,53.4v3.8h79.5v-3.8c0,0-13-21.4-13-53.4v-67.7c0-34.9,19.8-58.4,44.6-58.4
		c24.8,0,37,17.7,37,47.5V308c0,32-13.5,53.4-13.5,53.4v3.8h76.9v-3.8C784.2,361.4,771.1,339.9,771.1,308z"/>
	<path class="st1" d="M1189,154v4.6c8,2.1,33.2,13.9,22.3,38.7c-6.7,15.6-45.8,103-45.8,103s-38.3-88.3-45.8-105.1
		c-12.2-29,2.9-36.6,2.9-36.6V154H985.8V71.6h-4.6c-18.9,45-37.4,77.4-74.4,94.2v5.9h28.6v137.1c0,27.8,17.2,59.3,54.2,59.3
		c35.7,0,53-16.8,60.1-50.9l-5.5-4.2c-7.1,28.6-58.4,29.9-58.4-10.1V171.6h32.5c32.4,0,44.6,20.6,50.5,33.6l69.8,155.6
		c0,0-13,39.9-83.3,39.9l-2.9,4.6l25.6,48.4c18.1-5.5,54.2-25.6,73.6-66.4c10.5-23.5,79-180.4,85.4-194.7
		c9.7-22.7,38.7-34.1,38.7-34.1V154H1189z"/>
	<path class="st1" d="M1345,215.5c0,84.5,59.7,153.5,147.6,153.5c61,0,94.6-14.3,94.6-14.3v-73.2h-5.9c0,0-25.6,66.4-84.9,66.4
		c-64.3,0-89.1-68.5-89.1-140.9c0-71.1,32-133.7,88.7-133.7c55.9,0,85.4,65.6,85.4,65.6h5.9V69.2c0,0-40.8-14.3-94.6-14.3
		C1420.3,54.9,1345,109.9,1345,215.5z"/>
	<path class="st1" d="M1721.5,147.3c-63.1,0-106,45.4-106,110.2c0,64.3,41.6,110.6,101.3,110.6c63.5,0,104.7-45.8,104.7-112.7
		C1821.5,192.7,1781.2,147.3,1721.5,147.3z M1718.1,348.7c-29.4,0-47.1-32.8-47.1-93.3c0-52.1,16.8-88.7,48.8-88.7
		c29.9,0,46.3,37,46.3,90.8C1766,316.3,1749.2,348.7,1718.1,348.7z"/>
	<path class="st1" d="M1844.1,365.1h82.4v-3.8c0,0-16-21.4-16-53.4V55.7l-66.4,6.7v3.8c9.3,7.6,16,33.2,16,57.6V308
		c0,32-16,53.4-16,53.4V365.1z"/>
	<path class="st1" d="M1952.9,365.1h82.4v-3.8c0,0-16-21.4-16-53.4V55.7l-66.4,6.7v3.8c9.2,7.6,16,33.2,16,57.6V308
		c0,32-16,53.4-16,53.4V365.1z"/>
	<path class="st1" d="M2169.2,325.5c-32.4-3.8-55.9-30.3-55.9-70.2c0-0.7,0-1.4,0-2.1h146.3c0-60.5-32-106-91.7-106
		c-63.1,0-110.2,45.4-110.2,110.2c0,64.3,39.1,110.6,99.6,110.6c52.6,0,84.9-28.2,98.8-71.1l-3.4-2.9
		C2235.3,314.6,2206.2,329.7,2169.2,325.5z M2164.6,166.6c25.2,0,36,23.4,38.8,63.1l-89.3,7.9
		C2118.1,195.1,2136.4,166.6,2164.6,166.6z"/>
	<path class="st1" d="M2609.9,325.5c-32.4-3.8-55.9-30.3-55.9-70.2c0-0.7,0-1.4,0-2.1h146.3c0-60.5-32-106-91.7-106
		c-63.1,0-110.2,45.4-110.2,110.2c0,64.3,39.1,110.6,99.6,110.6c52.6,0,84.9-28.2,98.8-71.1l-3.4-2.9
		C2675.9,314.6,2646.9,329.7,2609.9,325.5z M2605.3,166.6c25.2,0,36,23.4,38.8,63.1l-89.3,7.9
		C2558.7,195.1,2577.1,166.6,2605.3,166.6z"/>
	<path class="st1" d="M2491.5,162.7l-24.4-48.6c-20.1,14-34.2,26.8-46.6,39.9c-11.7-3.9-25-6.1-39.6-6.1c-57.6,0-97.1,30-97.1,73.5
		c0,38.3,29,67,74.1,72.8l-51.8,26.1v7.2l42.1,17.7c-31.8,5.7-76.6,23.3-76.6,51.1c0,37.6,47.1,54.5,97.5,54.5
		c66,0,113.1-24.9,113.1-62.5c0-19-8-39.7-38.7-52.8l-74.4-31.3l17.8-9.3c51.6-3.8,85.7-33,85.7-74.8c0-22.6-10.6-41.6-28.7-54.5
		h45.5L2491.5,162.7z M2431.8,403.1c0,18.2-21.9,29.2-54.7,29.2c-31.5,0-58.4-16.9-58.4-41.8c0-18,26-32,50.5-36.3l31,13.1
		C2426.4,378.2,2431.8,390.4,2431.8,403.1z M2377.6,279.3c-25.2,0-40.4-23.2-40.4-59.1c0-32.5,17.7-56.2,42-56.2
		c25.6,0,40.8,22.4,40.8,57.5C2420.1,258.2,2403.7,279.3,2377.6,279.3z"/>
</g>
<path class="st1" d="M3016.7,0c-127,0-230,103-230,230s103,230,230,230c127,0,230-103,230-230S3143.7,0,3016.7,0z M3016.7,433.9
	c-112.6,0-203.9-91.3-203.9-203.9c0-112.6,91.3-203.9,203.9-203.9s203.9,91.3,203.9,203.9C3220.6,342.6,3129.3,433.9,3016.7,433.9z"
	/>
<path class="st1" d="M3124.3,106.3h-215.1l-10.2,64.1h4.7c0-1.5,30.9-45.1,67-45.1h20.4v172.5c0,35.5-11.3,68.9-11.3,68.9v3.3h73.9
	v-2.6c0-0.7-11.6-34.1-11.6-69.6V125.4h20.4c37.1,0,67.3,45.1,67.3,45.1h4.7L3124.3,106.3z"/>
<g>
	<path class="st1" d="M2868.5,269.4c4.9-2.8,5.9-6,5.9-10.6v-36.4c0-4.1-1-6.1-5-6.1c-1.2,0-2.7,0.2-4.5,0.4l21.9-9.9
		c-0.7,3.9-0.8,8.6-0.8,13.4v38.6c0,4.6,1,7.8,5.9,10.6H2868.5z"/>
	<path class="st1" d="M2946.3,253.5c0,10.3-9.1,17.3-22.7,17.3c-12.8,0-20.9-6.1-20.9-15c0-7.8,6.1-13.8,13.1-16.8
		c-5.8-3.7-10.7-8.2-10.7-15.8c0-9.6,8-16.3,20.4-16.3c11.8,0,18.4,6.1,18.4,13.7c0,6.5-5,12-12,15
		C2939.2,239.7,2946.3,244.4,2946.3,253.5z M2934.7,256.9c0-7.6-7.9-11.3-15.6-15.8c-2.9,2.7-5.3,7-5.3,11.9
		c0,7.6,4.6,12.1,11.6,12.1C2931.2,265.2,2934.7,262.1,2934.7,256.9z M2915.6,220.3c0,6.2,5.9,9.7,12.5,13.3
		c3.2-3.1,5.7-7.6,5.7-11.6c0-5.6-4.4-9.4-9.9-9.4C2919,212.6,2915.6,215.4,2915.6,220.3z"/>
</g>
<g>
	<path class="st1" d="M3097.2,259.2c7.5,0,12.2-1.2,16.9-7.9l-3,19.1c-5-0.9-11.1-0.9-17-0.9h-22V264c13.9-12.3,26.5-29.1,26.5-41.5
		c0-5.5-2.7-9.6-8.2-9.6c-6.8,0-12.9,6.6-15.7,16.4v-18.4c5.6-2.3,12.1-4,18.1-4c11.4,0,18.4,6.3,18.4,15.3
		c0,14.7-18.2,29.2-29.5,37H3097.2z"/>
	<path class="st1" d="M3162,252.2c0,9.8-7.9,18.5-21.4,18.5c-5.5,0-12.5-1.4-17.5-3.6v-15c3.5,7.9,8.3,12.6,15.4,12.6
		c7.8,0,10.9-5.3,10.9-11.2c0-7.4-5.2-12.5-13.9-12.5c-2,0-4.3,0.3-6.1,0.7v-4.9c12.7-2.4,18.9-8.5,18.9-15.1c0-4.7-2.7-9-8.4-9
		c-6.8,0-12,6.6-15.3,16.5V211c4.7-2.4,11.3-4.1,17.4-4.1c11.6,0,18.2,6.1,18.2,13.1c0,8.3-9.1,13.9-18.3,15.6
		C3153,236.1,3162,241.8,3162,252.2z"/>
</g>
</svg>
