<svg width="102" height="48" viewBox="0 0 102 48" fill="none" xmlns="http://www.w3.org/2000/svg">
<path d="M13.9765 35.9634C12.907 36.2301 11.1888 36.5333 8.89622 36.5333C3.50874 36.5333 0 33.1141 0 26.9277V23.7365C0 17.5479 3.51447 14.131 8.89622 14.131C11.1888 14.131 12.9082 14.433 13.9765 14.7008C14.5496 14.8536 14.7789 15.004 14.7789 15.575V18.9543C14.7789 19.3327 14.435 19.5994 14.0522 19.5994H13.9765C12.4307 19.4112 10.8743 19.3221 9.31691 19.3327C7.5975 19.3327 6.18643 20.3584 6.18643 23.7377V26.9289C6.18185 30.3082 7.59864 31.3339 9.31576 31.3339C10.8736 31.3436 12.4304 31.253 13.9765 31.0627H14.0522C14.4362 31.0627 14.7789 31.3305 14.7789 31.7112V35.0881C14.7789 35.658 14.5496 35.8096 13.9765 35.9634Z" fill="#172A7E"/>
<path d="M55.0991 11.2748C54.7261 11.2757 54.3607 11.1698 54.0467 10.9697C53.7326 10.7696 53.4832 10.4838 53.3282 10.1465C53.1732 9.80915 53.1192 9.43458 53.1726 9.06755C53.2261 8.70051 53.3847 8.35655 53.6295 8.07678L60.0773 0.668607C60.2564 0.461517 60.4779 0.294814 60.7269 0.17964C60.976 0.0644649 61.2469 0.00347022 61.5216 0.000731574C61.7966 -0.00692213 62.0699 0.0455576 62.3223 0.154464C62.5746 0.26337 62.7998 0.426046 62.982 0.630996L69.6441 7.89101C69.8342 8.07533 69.9844 8.29633 70.0854 8.54043C70.1865 8.78454 70.2364 9.04661 70.2319 9.31056C70.2274 9.57451 70.1688 9.83477 70.0595 10.0754C69.9503 10.316 69.7927 10.5318 69.5965 10.7097C69.4003 10.8876 69.1697 11.0237 68.9187 11.1097C68.6676 11.1958 68.4016 11.2299 68.1369 11.2101C67.8721 11.1902 67.6142 11.1167 67.3791 10.9942C67.1439 10.8717 66.9364 10.7027 66.7693 10.4975L61.5847 4.84682L56.5709 10.6047C56.3882 10.8147 56.1622 10.9833 55.9083 11.0989C55.6543 11.2145 55.3784 11.2745 55.0991 11.2748Z" fill="#4C9DF0"/>
<path d="M29.693 26.75H27.5392C24.8959 26.75 24.215 27.6481 24.215 29.4933V29.8272C24.215 31.4046 25.0071 31.7077 26.5946 31.7077C27.7272 31.7077 28.7852 31.3305 29.6896 30.8803L29.693 26.75ZM34.9441 35.952H30.7121C30.5124 35.9508 30.3212 35.8715 30.1801 35.7311C30.0389 35.5907 29.959 35.4006 29.9578 35.2021V34.6003C28.4837 35.65 26.9775 36.2917 24.7067 36.2917C21.4192 36.2917 18.2463 34.7098 18.2463 29.8272V29.4933C18.2463 25.0951 21.0811 23.1416 27.5392 23.1416H29.5807V21.7899C29.5807 19.6484 28.5215 19.1993 26.7482 19.1993C24.3308 19.1993 21.6462 19.3486 20.4758 19.4603H20.2867C19.9096 19.4603 19.6058 19.2723 19.6058 18.7845V15.7437C19.6058 15.3288 19.8718 15.0291 20.3234 14.9151C21.7207 14.5732 24.3663 14.1276 26.8571 14.1276C32.2974 14.1276 35.6972 16.3056 35.6972 21.7899V35.2021C35.6957 35.4007 35.6156 35.5908 35.4742 35.7311C35.3328 35.8715 35.1416 35.9509 34.9418 35.952" fill="#172A7E"/>
<path d="M46.5067 36.2917C44.4285 36.2917 41.556 35.9885 39.6291 35.462C39.1706 35.348 38.9092 35.0483 38.9092 34.6003V31.555C38.9062 31.4603 38.9227 31.366 38.9579 31.2779C38.993 31.1898 39.0459 31.1099 39.1134 31.043C39.1809 30.9761 39.2615 30.9237 39.3502 30.889C39.4389 30.8544 39.5338 30.8382 39.6291 30.8415H39.7769C41.8185 31.106 44.9936 31.3692 46.1961 31.3692C48.0106 31.3692 48.4279 30.8814 48.4279 29.9013C48.4279 29.3405 48.084 28.9268 47.0271 28.3285L42.1165 25.5077C40.0016 24.3064 38.7556 22.3928 38.7556 19.9492C38.7556 16.1563 41.2854 14.1276 46.4998 14.1276C49.4801 14.1276 51.297 14.5037 53.225 14.9926C53.6835 15.1066 53.9414 15.4052 53.9414 15.8554V18.8984C53.9414 19.3543 53.6789 19.6096 53.2995 19.6096H53.1849C52.0902 19.4615 48.8417 19.123 46.9125 19.123C45.4418 19.123 44.9123 19.3509 44.9123 20.2114C44.9123 20.7812 45.3272 21.0764 46.0837 21.5266L50.772 24.1936C53.9082 25.9955 54.5879 27.9546 54.5879 29.9765C54.5879 33.5096 52.0191 36.2917 46.5033 36.2917" fill="#172A7E"/>
<path d="M63.9598 35.952H59.3483C59.1488 35.9505 58.958 35.871 58.8171 35.7306C58.6761 35.5903 58.5964 35.4004 58.5952 35.2021V15.1783C58.5955 14.9797 58.6749 14.7893 58.8161 14.6488C58.9572 14.5082 59.1486 14.429 59.3483 14.4284H63.9598C64.1596 14.4287 64.3512 14.5079 64.4924 14.6485C64.6336 14.7891 64.7129 14.9796 64.7129 15.1783V35.2021C64.712 35.4005 64.6324 35.5905 64.4914 35.731C64.3504 35.8714 64.1593 35.9508 63.9598 35.952Z" fill="#172A7E"/>
<path d="M81.148 35.9885C80.0155 36.1777 79.2613 36.2917 78.1677 36.2917C74.0125 36.2917 71.8197 35.2021 71.8197 29.866V18.9737L68.7992 18.4836C68.382 18.4084 68.0049 18.1098 68.0049 17.696V15.216C68.0126 15.0092 68.0988 14.813 68.2462 14.6668C68.3936 14.5207 68.5912 14.4355 68.7992 14.4285H71.8197V11.3512C71.8197 10.9352 72.1636 10.6674 72.5751 10.599L77.1865 9.81032H77.3012C77.3889 9.8049 77.4769 9.81732 77.5597 9.84681C77.6425 9.87631 77.7184 9.92226 77.7828 9.98188C77.8471 10.0415 77.8986 10.1135 77.934 10.1936C77.9695 10.2736 77.9882 10.36 77.9889 10.4474V14.4307H81.0839C81.284 14.4307 81.476 14.5097 81.6176 14.6503C81.7592 14.7909 81.839 14.9817 81.8393 15.1807V18.2271C81.8393 18.4264 81.7597 18.6176 81.6181 18.7586C81.4764 18.8997 81.2843 18.9791 81.0839 18.9794H77.9889V29.907C77.9889 31.4103 78.1035 31.6747 79.2326 31.6747H81.0839C81.5768 31.6747 81.8782 31.9026 81.8782 32.3118V35.242C81.8782 35.6158 81.6123 35.919 81.1595 35.9942" fill="#172A7E"/>
<path d="M95.9959 26.75H93.8397C91.1964 26.75 90.5155 27.6481 90.5155 29.4933V29.8272C90.5155 31.4046 91.3076 31.7077 92.8963 31.7077C94.0254 31.7077 95.088 31.3305 95.9913 30.8803L95.9959 26.75ZM101.245 35.952H97.016C96.8158 35.9517 96.6237 35.8727 96.4818 35.7323C96.3399 35.5918 96.2595 35.4012 96.2583 35.2021V34.6003C94.7842 35.65 93.278 36.2917 91.0096 36.2917C87.7209 36.2917 84.5469 34.7098 84.5469 29.8272V29.4933C84.5469 25.0951 87.3793 23.1416 93.8397 23.1416H95.8812V21.7899C95.8812 19.6484 94.8186 19.1993 93.0453 19.1993C90.629 19.1993 87.9467 19.3486 86.7752 19.4603H86.5884C86.2078 19.4603 85.9086 19.2723 85.9086 18.7845V15.7437C85.9086 15.3288 86.1734 15.0291 86.6239 14.9151C88.0224 14.5732 90.668 14.1276 93.1577 14.1276C98.5979 14.1276 101.998 16.3056 101.998 21.7899V35.2021C101.997 35.4009 101.917 35.5913 101.775 35.7318C101.634 35.8723 101.442 35.9514 101.242 35.952" fill="#172A7E"/>
<path d="M4.76719 41.0887C4.6655 41.0935 4.56713 41.1261 4.48296 41.1831C4.3988 41.24 4.33213 41.319 4.29034 41.4113L3.08675 44.0748L1.88316 41.4033C1.8318 41.3026 1.75185 41.2192 1.65323 41.1633C1.55461 41.1073 1.44165 41.0814 1.32837 41.0887C1.26142 41.0851 1.19445 41.0953 1.13159 41.1185C1.06874 41.1417 1.01136 41.1775 0.962993 41.2236C0.914629 41.2698 0.876318 41.3253 0.850438 41.3868C0.824558 41.4483 0.81166 41.5144 0.812542 41.5811C0.815404 41.6697 0.83484 41.7571 0.869856 41.8387L2.17661 44.7051C2.2563 44.9042 2.37739 45.0845 2.53195 45.2339V47.413C2.53195 47.7116 2.76121 47.9453 3.12916 47.9453C3.19853 47.9449 3.26713 47.9307 3.33092 47.9036C3.39471 47.8764 3.45242 47.8369 3.50067 47.7874C3.54892 47.7378 3.58674 47.6792 3.61191 47.6149C3.63708 47.5506 3.64911 47.482 3.64728 47.413V45.2385C3.80011 45.0891 3.92064 44.9103 4.00147 44.713L5.30823 41.8444L5.3174 41.8239C5.34636 41.748 5.36262 41.6679 5.36554 41.5868C5.36554 41.3019 5.14889 41.0944 4.76719 41.0944" fill="#4C9DF0"/>
<path d="M9.50575 46.899C8.91656 46.899 8.13022 46.7053 8.13022 45.0322V44.0133C8.13022 42.3367 8.91541 42.143 9.50575 42.143C10.0961 42.143 10.8813 42.3367 10.8813 44.0133V45.0322C10.8813 46.7053 10.0949 46.899 9.50575 46.899ZM9.50575 41.05C7.92274 41.05 7.01489 42.1293 7.01489 44.0133V45.0322C7.01489 46.915 7.92274 47.9954 9.50575 47.9954C11.0887 47.9954 11.9989 46.915 11.9989 45.0322V44.0133C11.9989 42.1293 11.0899 41.05 9.50575 41.05Z" fill="#4C9DF0"/>
<path d="M17.9815 41.0888C17.8421 41.0912 17.7094 41.1485 17.6125 41.248C17.5156 41.3476 17.4624 41.4814 17.4645 41.6199V45.4026C17.4645 46.6563 16.9819 46.9094 16.2552 46.9094C15.6224 46.9094 15.0367 46.7259 15.0367 45.4026V41.6199C15.0367 41.327 14.8074 41.0888 14.4372 41.0888C14.2978 41.0912 14.1652 41.1485 14.0682 41.248C13.9713 41.3476 13.9181 41.4814 13.9202 41.6199V45.4026C13.9202 47.0746 14.7501 47.9944 16.2552 47.9944C17.7602 47.9944 18.581 47.0746 18.581 45.4026V41.6199C18.581 41.327 18.3517 41.0888 17.9815 41.0888Z" fill="#4C9DF0"/>
<path d="M21.7895 42.1544C22.0107 42.1464 22.2675 42.143 22.4772 42.143C23.7462 42.143 23.9857 42.4849 23.9857 43.0992V43.1414C23.9857 43.8161 23.776 44.0988 22.4772 44.0988L21.7895 44.0931V42.1544ZM23.8528 45.0117C24.6941 44.7153 25.1056 44.0931 25.1056 43.0992C25.1056 41.2631 23.6075 41.0477 22.4807 41.0477C22.1207 41.0477 21.4651 41.0648 21.1602 41.0808C21.0283 41.0952 20.9062 41.157 20.8169 41.2546C20.7277 41.3522 20.6773 41.4788 20.6753 41.6108V47.4108C20.6753 47.7048 20.9045 47.943 21.2759 47.943C21.345 47.9418 21.4132 47.9271 21.4766 47.8997C21.54 47.8724 21.5973 47.8328 21.6453 47.7834C21.6933 47.734 21.7311 47.6756 21.7564 47.6117C21.7817 47.5478 21.7941 47.4795 21.7929 47.4108V45.1849C22.0222 45.1849 22.3122 45.1917 22.4807 45.1917H22.6343L24.3021 47.7276C24.3516 47.7924 24.4148 47.8455 24.4874 47.8832C24.5599 47.9208 24.6399 47.942 24.7216 47.9453H24.8282C24.8951 47.9473 24.9618 47.9358 25.024 47.9115C25.0863 47.8871 25.143 47.8504 25.1906 47.8036C25.2382 47.7568 25.2757 47.7009 25.3009 47.6393C25.3261 47.5776 25.3385 47.5115 25.3372 47.445C25.3344 47.3318 25.299 47.2219 25.2352 47.1281L23.8528 45.0117Z" fill="#4C9DF0"/>
<path d="M32.3167 44.0201L31.786 43.6998C31.0696 43.2702 30.8518 43.0513 30.8518 42.7641C30.8518 42.5168 30.8518 42.143 32.029 42.143C32.2743 42.143 32.5873 42.1715 32.8314 42.1943C33.0148 42.2114 33.1696 42.2239 33.2475 42.2239C33.3153 42.2291 33.3835 42.2203 33.4477 42.1982C33.512 42.1761 33.571 42.141 33.6211 42.0953C33.6712 42.0496 33.7113 41.9941 33.7389 41.9323C33.7665 41.8705 33.7811 41.8037 33.7817 41.7361V41.629C33.7823 41.5 33.7322 41.376 33.642 41.2833C33.5518 41.1906 33.4287 41.1368 33.2991 41.1332L33.1306 41.1172C32.7993 41.0865 32.4153 41.05 32.0336 41.05C30.0231 41.05 29.7239 42.1179 29.7239 42.7596C29.7239 43.7602 30.5423 44.2606 31.1991 44.6618L31.7402 44.9957C32.6641 45.5656 32.8131 45.6852 32.8131 46.0545C32.8131 46.4842 32.7237 46.9036 31.6542 46.9036C31.378 46.9003 31.1021 46.8828 30.8277 46.8512L30.3807 46.8158C30.0139 46.8158 29.8477 47.0631 29.8477 47.2934V47.4016C29.8511 47.5312 29.9031 47.6548 29.9934 47.7482C30.0838 47.8416 30.2059 47.8981 30.336 47.9065L30.532 47.9271C30.9043 47.9733 31.279 47.9977 31.6542 48C33.6476 48 33.9467 46.7805 33.9467 46.0545C33.9467 45.0857 33.2384 44.582 32.3133 44.0247" fill="#4C9DF0"/>
<path d="M39.372 41.0888H35.4632C35.164 41.0888 34.9302 41.3168 34.9302 41.678C34.9302 41.7461 34.9442 41.8135 34.9715 41.876C34.9987 41.9384 35.0385 41.9947 35.0885 42.0413C35.1384 42.0878 35.1974 42.1237 35.2619 42.1467C35.3263 42.1697 35.3949 42.1793 35.4632 42.175H36.8628V47.4177C36.8628 47.7163 37.0921 47.9499 37.4623 47.9499C37.5316 47.9495 37.6001 47.9353 37.6637 47.9082C37.7274 47.881 37.785 47.8415 37.833 47.7919C37.8811 47.7423 37.9187 47.6836 37.9436 47.6194C37.9685 47.5551 37.9803 47.4865 37.9781 47.4177V42.175H39.372C39.6757 42.175 39.905 41.9618 39.905 41.6051C39.9046 41.5364 39.8904 41.4684 39.8632 41.4052C39.8361 41.342 39.7965 41.2848 39.7469 41.2369C39.6973 41.1891 39.6386 41.1515 39.5742 41.1265C39.5098 41.1015 39.4411 41.0894 39.372 41.0911" fill="#4C9DF0"/>
<path d="M45.4786 41.0888C45.3393 41.0912 45.2066 41.1485 45.1097 41.248C45.0127 41.3476 44.9595 41.4814 44.9617 41.6199V45.4026C44.9617 46.6563 44.4779 46.9094 43.7512 46.9094C43.1184 46.9094 42.5327 46.7259 42.5327 45.4026V41.6199C42.5327 41.327 42.3034 41.0888 41.9343 41.0888C41.7947 41.0909 41.6616 41.148 41.5642 41.2476C41.4669 41.3472 41.4132 41.4811 41.4151 41.6199V45.4026C41.4151 47.0746 42.245 47.9944 43.7512 47.9944C45.2574 47.9944 46.0781 47.0746 46.0781 45.4026V41.6199C46.0781 41.327 45.8489 41.0888 45.4786 41.0888Z" fill="#4C9DF0"/>
<path d="M50.0408 46.9242C49.7336 46.9242 49.5055 46.9242 49.2854 46.9116V42.1419C49.5055 42.1271 49.7336 42.1168 50.0408 42.1168C51.2134 42.1168 51.7144 42.6867 51.7144 44.0133V45.0322C51.7144 46.3406 51.1985 46.9242 50.0408 46.9242ZM50.0408 41.0501C49.5593 41.0377 49.0775 41.0628 48.5999 41.1253C48.4798 41.1515 48.372 41.2172 48.2939 41.3116C48.2157 41.4061 48.1717 41.5239 48.1689 41.6461V47.3972C48.172 47.5226 48.2184 47.6432 48.3005 47.7385C48.3826 47.8338 48.4952 47.898 48.6194 47.9203C49.0906 47.9815 49.5658 48.0066 50.0408 47.9955C51.8405 47.9955 52.8308 46.9424 52.8308 45.0322V44.0133C52.8308 41.5641 51.3132 41.0501 50.0408 41.0501Z" fill="#4C9DF0"/>
<path d="M55.8923 42.2011C55.9693 42.1752 56.0511 42.1663 56.1319 42.1748H58.2651C58.5689 42.1748 58.7981 41.9583 58.7981 41.605C58.7977 41.5363 58.7835 41.4683 58.7563 41.4051C58.7292 41.3419 58.6896 41.2847 58.64 41.2368C58.5904 41.189 58.5317 41.1514 58.4673 41.1264C58.4029 41.1013 58.3342 41.0893 58.2651 41.091H56.1319C54.9959 41.091 54.7563 41.7953 54.7563 42.3857V46.6505C54.7563 47.2432 54.9948 47.9475 56.1319 47.9475H58.2651C58.5643 47.9475 58.7981 47.7196 58.7981 47.3663C58.7979 47.2979 58.7837 47.2304 58.7565 47.1676C58.7293 47.1049 58.6896 47.0483 58.6398 47.0012C58.59 46.9541 58.5311 46.9176 58.4667 46.8937C58.4023 46.8699 58.3337 46.8593 58.2651 46.8625H56.1319C56.0548 46.87 55.9771 46.8631 55.9026 46.842C55.8785 46.7812 55.8695 46.7155 55.8763 46.6505V44.9204H58.2697C58.5688 44.9204 58.8027 44.6925 58.8027 44.3266C58.8028 44.258 58.7888 44.1901 58.7618 44.127C58.7348 44.0639 58.6951 44.0068 58.6453 43.9593C58.5955 43.9118 58.5366 43.8749 58.472 43.8506C58.4074 43.8264 58.3386 43.8154 58.2697 43.8183H55.8717V42.3891C55.8686 42.3276 55.8756 42.266 55.8923 42.2068" fill="#4C9DF0"/>
<path d="M64.9754 41.0887H64.8768C64.8081 41.0897 64.7404 41.1043 64.6774 41.1317C64.6145 41.159 64.5577 41.1986 64.5103 41.248C64.4629 41.2975 64.4259 41.3558 64.4014 41.4197C64.377 41.4835 64.3656 41.5515 64.3679 41.6198V45.8436L62.2003 41.5126C62.1267 41.3484 61.9988 41.2141 61.8379 41.132C61.677 41.0499 61.4927 41.025 61.3156 41.0613C61.1385 41.0976 60.9791 41.193 60.864 41.3317C60.7489 41.4704 60.6849 41.644 60.6826 41.8238V47.4084C60.6826 47.707 60.9119 47.9407 61.281 47.9407C61.3504 47.9404 61.4191 47.9263 61.4829 47.8992C61.5468 47.8722 61.6045 47.8327 61.6528 47.7831C61.7011 47.7335 61.7389 47.6748 61.764 47.6104C61.7892 47.5461 61.8011 47.4774 61.7991 47.4084V43.2017L63.977 47.5326C64.0382 47.6557 64.1244 47.7648 64.2303 47.8529C64.3765 47.9572 64.5555 48.0057 64.7347 47.9897H64.7427C65.1703 47.9897 65.4924 47.6478 65.4924 47.1919V41.6072C65.4941 41.5384 65.4819 41.4699 65.4567 41.4057C65.4314 41.3416 65.3936 41.2831 65.3453 41.2336C65.2971 41.1842 65.2395 41.1448 65.1757 41.1178C65.112 41.0907 65.0435 41.0766 64.9743 41.0761" fill="#4C9DF0"/>
<path d="M71.6122 41.0888H67.7034C67.4054 41.0888 67.1704 41.3168 67.1704 41.678C67.1712 41.7459 67.1859 41.8129 67.2134 41.8749C67.2409 41.937 67.2807 41.993 67.3305 42.0394C67.3803 42.0858 67.4389 42.1217 67.503 42.145C67.5671 42.1683 67.6353 42.1785 67.7034 42.175H69.1053V47.4177C69.1053 47.7163 69.3346 47.9499 69.7025 47.9499C69.7719 47.9495 69.8404 47.9353 69.9041 47.9082C69.9679 47.881 70.0255 47.8415 70.0736 47.7919C70.1218 47.7424 70.1595 47.6837 70.1846 47.6194C70.2096 47.5552 70.2215 47.4866 70.2195 47.4177V42.175H71.6122C71.916 42.175 72.1475 41.9618 72.1475 41.6051C72.1469 41.5362 72.1326 41.4681 72.1052 41.4048C72.0779 41.3416 72.0381 41.2843 71.9883 41.2365C71.9385 41.1886 71.8795 41.1511 71.815 41.1261C71.7504 41.1012 71.6815 41.0893 71.6122 41.0911" fill="#4C9DF0"/>
<path d="M80.9751 41.0888C80.9058 41.0892 80.8374 41.1034 80.7737 41.1305C80.7101 41.1575 80.6525 41.1969 80.6044 41.2464C80.5562 41.2958 80.5185 41.3544 80.4934 41.4185C80.4683 41.4826 80.4563 41.5511 80.4581 41.6199V43.7569H77.9065V41.6199C77.9065 41.327 77.6772 41.0888 77.307 41.0888C77.1675 41.0912 77.0347 41.1484 76.9376 41.248C76.8405 41.3475 76.787 41.4813 76.7889 41.6199V47.4131C76.7889 47.7117 77.0181 47.9454 77.3895 47.9454C77.4588 47.9449 77.5274 47.9307 77.5911 47.9036C77.6548 47.8765 77.7125 47.837 77.7606 47.7874C77.8088 47.7378 77.8465 47.6792 77.8715 47.6149C77.8966 47.5506 77.9085 47.482 77.9065 47.4131V44.8476H80.4604V47.4131C80.4584 47.482 80.4703 47.5506 80.4953 47.6149C80.5204 47.6792 80.5581 47.7378 80.6062 47.7874C80.6544 47.837 80.712 47.8765 80.7758 47.9036C80.8395 47.9307 80.908 47.9449 80.9774 47.9454H81.053C81.1223 47.9448 81.1907 47.9305 81.2544 47.9033C81.3181 47.8761 81.3756 47.8366 81.4238 47.787C81.4719 47.7375 81.5096 47.6789 81.5347 47.6147C81.5598 47.5505 81.5718 47.482 81.57 47.4131V41.6199C81.57 41.3224 81.3407 41.0888 80.9774 41.0888" fill="#4C9DF0"/>
<path d="M85.9853 46.899C85.3939 46.899 84.6098 46.7053 84.6098 45.0322V44.0133C84.6098 42.3367 85.395 42.143 85.9853 42.143C86.5757 42.143 87.3609 42.3367 87.3609 44.0133V45.0322C87.3609 46.7053 86.5768 46.899 85.9853 46.899ZM85.9853 41.05C84.4 41.05 83.4922 42.1293 83.4922 44.0133V45.0322C83.4922 46.915 84.4 47.9954 85.9853 47.9954C87.5706 47.9954 88.475 46.915 88.475 45.0322V44.0133C88.475 42.1293 87.5683 41.05 85.9853 41.05Z" fill="#4C9DF0"/>
<path d="M95.0672 41.05C94.9144 41.0495 94.7648 41.0934 94.6368 41.1765C94.5089 41.2595 94.4082 41.378 94.3473 41.5173L93.1334 44.0509L91.9229 41.5207C91.8631 41.3802 91.7626 41.2604 91.6343 41.1766C91.5059 41.0928 91.3555 41.0488 91.2019 41.05C90.7239 41.05 90.3995 41.3635 90.3995 41.8285V47.4131C90.3995 47.7071 90.6288 47.9476 90.9967 47.9476C91.0662 47.947 91.1349 47.9327 91.1987 47.9053C91.2625 47.878 91.3202 47.8383 91.3683 47.7885C91.4165 47.7387 91.4542 47.6798 91.4791 47.6154C91.5041 47.5509 91.5159 47.4821 91.5137 47.4131V43.203L92.37 45.0049C92.5385 45.3468 92.7803 45.5132 93.1322 45.5132C93.4842 45.5132 93.726 45.3445 93.8876 45.0037L94.7451 43.2098V47.4119C94.7429 47.4809 94.7546 47.5496 94.7795 47.614C94.8044 47.6784 94.842 47.7372 94.89 47.787C94.9381 47.8367 94.9956 47.8765 95.0593 47.9039C95.123 47.9313 95.1915 47.9457 95.2609 47.9465H95.3446C95.414 47.9457 95.4826 47.9313 95.5463 47.9039C95.6101 47.8765 95.6677 47.8368 95.7158 47.787C95.7639 47.7373 95.8016 47.6785 95.8266 47.6141C95.8516 47.5497 95.8635 47.481 95.8615 47.4119V41.8273C95.8615 41.3623 95.5417 41.0489 95.0591 41.0489" fill="#4C9DF0"/>
<path d="M101.465 44.9205C101.765 44.9205 102 44.6926 102 44.3267C102 44.2578 101.986 44.1897 101.959 44.1263C101.932 44.063 101.892 44.0058 101.842 43.9582C101.792 43.9105 101.733 43.8735 101.668 43.8493C101.603 43.8251 101.534 43.8142 101.465 43.8172H99.0737V42.3892C99.0712 42.3274 99.0778 42.2656 99.0932 42.2057C99.1702 42.1817 99.2512 42.1732 99.3316 42.1806H101.465C101.77 42.1806 102 41.9652 102 41.6108C102 41.5419 101.985 41.4738 101.958 41.4105C101.93 41.3472 101.891 41.29 101.841 41.2421C101.791 41.1943 101.732 41.1568 101.668 41.1318C101.603 41.1068 101.534 41.0949 101.465 41.0967H99.3316C98.1956 41.0967 97.9561 41.8011 97.9561 42.3915V46.6574C97.9561 47.2478 98.1956 47.9544 99.3316 47.9544H101.465C101.765 47.9544 102 47.7265 102 47.3732C102 47.3045 101.986 47.2367 101.958 47.1737C101.931 47.1106 101.891 47.0538 101.841 47.0065C101.791 46.9592 101.732 46.9225 101.667 46.8985C101.603 46.8746 101.534 46.8639 101.465 46.8671H99.3316C99.2548 46.8699 99.1779 46.8642 99.1023 46.85C99.0798 46.7885 99.0712 46.7227 99.0771 46.6574V44.9205H101.465Z" fill="#4C9DF0"/>
</svg>
