<svg xmlns="http://www.w3.org/2000/svg" xmlns:xlink="http://www.w3.org/1999/xlink" width="500" zoomAndPan="magnify" viewBox="0 0 375 374.999991" height="500" preserveAspectRatio="xMidYMid meet" version="1.2"><defs><clipPath id="f84313b736"><path d="M 82.386719 211 L 201.957031 211 L 201.957031 262.730469 L 82.386719 262.730469 Z M 82.386719 211 "/></clipPath><clipPath id="a248c7069c"><path d="M 201.648438 211.277344 L 201.578125 211.0625 C 196.402344 214.726562 192.066406 217.511719 188.578125 219.730469 C 164.449219 234.84375 140.28125 245.941406 115.269531 253.445312 C 105.265625 256.402344 91.171875 259.609375 85.289062 260.207031 L 82.507812 260.878906 C 91.59375 262.566406 100.261719 262.566406 105.863281 261.757812 C 127.632812 258.480469 154.972656 245.480469 184.738281 224.203125 C 190.234375 220.292969 201.613281 211.558594 201.613281 211.277344 "/></clipPath><clipPath id="885bbacb07"><path d="M 126 160.101562 L 271.632812 160.101562 L 271.632812 272 L 126 272 Z M 126 160.101562 "/></clipPath><clipPath id="54f094bd90"><path d="M 271.507812 164.84375 L 271.121094 160.335938 L 268.9375 162.308594 C 261.785156 169.847656 251.746094 179.394531 244.242188 185.945312 C 213.945312 212.472656 176.636719 237.238281 138.519531 256.085938 C 131.828125 259.398438 126.332031 262.25 126.332031 262.355469 C 126.296875 262.78125 132.460938 265.246094 137.746094 266.9375 C 143.417969 268.734375 151.90625 270.53125 158.105469 271.199219 C 163.707031 271.761719 178.574219 271.445312 183.71875 270.636719 C 206.335938 266.9375 225.640625 257.214844 241.316406 241.535156 C 246.707031 236.148438 249.914062 232.238281 254.492188 225.367188 C 262.3125 213.636719 267.738281 199.933594 270.167969 185.699219 C 271.261719 179.464844 271.859375 170.234375 271.542969 164.84375 "/></clipPath><clipPath id="f1282e72f6"><path d="M 22.128906 65.007812 L 350.71875 65.007812 L 350.71875 242.957031 L 22.128906 242.957031 Z M 22.128906 65.007812 "/></clipPath><clipPath id="440ca4ac19"><path d="M 316.777344 83.359375 C 320.617188 82.058594 324.246094 82.726562 327.238281 85.367188 C 329.671875 87.515625 330.621094 89.527344 330.867188 92.835938 C 331.113281 96.324219 330.09375 98.824219 327.484375 101.257812 C 322.167969 106.222656 313.78125 104.496094 310.71875 97.839844 C 308.144531 92.34375 311.070312 85.332031 316.8125 83.359375 M 310.398438 134.933594 L 313.007812 140.324219 C 317.023438 148.570312 317.832031 148.675781 322.132812 141.523438 C 326.710938 133.878906 329.671875 125.597656 330.375 118.378906 L 330.796875 115.59375 C 333.226562 112.847656 334.953125 110.523438 336.152344 108.761719 C 342.035156 100.023438 347.144531 85.367188 349.1875 71.453125 L 350.488281 65.570312 C 327.734375 67.085938 309.765625 72.863281 300.078125 80.613281 L 298.316406 81.773438 C 287.570312 82.480469 280.316406 84.628906 272.847656 88.433594 C 267.949219 90.96875 267.070312 91.675781 267.070312 93.011719 C 267.070312 94.386719 267.492188 94.738281 273.375 98.050781 L 278.34375 100.871094 L 277.390625 101.679688 C 274.714844 103.96875 273.761719 107.175781 275.03125 110.027344 L 276.476562 112.496094 C 278.695312 114.996094 278.941406 115.523438 279.152344 117.707031 L 279.433594 120.246094 L 272.917969 125.070312 C 269.394531 127.714844 266.011719 130.144531 265.484375 130.496094 L 264.496094 131.164062 L 262.347656 126.128906 C 256.253906 112.566406 245.753906 98.894531 234.058594 89.242188 C 219.792969 77.511719 202.074219 69.621094 183.753906 66.769531 C 178.996094 66.027344 164.0625 65.5 160.46875 65.921875 C 149.265625 67.226562 142.605469 68.671875 134.574219 71.417969 C 113.261719 78.816406 94.871094 93.222656 82.261719 112.425781 C 76.660156 120.984375 71.410156 132.820312 68.910156 142.472656 C 63.167969 164.597656 64.714844 186.296875 73.59375 208.773438 L 74.085938 210.078125 L 80.253906 209.832031 C 96.773438 209.230469 122.703125 204.089844 153.632812 195.316406 C 163.355469 192.570312 181.253906 187.074219 188.15625 184.785156 L 192.242188 183.480469 C 192.523438 183.726562 180.160156 189.433594 171.28125 193.273438 C 137.144531 208.070312 107.132812 217.371094 79.898438 221.5625 C 72.289062 222.726562 58.023438 222.832031 53.726562 221.738281 C 46.082031 219.871094 42.171875 215.890625 42.945312 210.746094 C 43.648438 206.027344 49.671875 197.253906 57.707031 189.363281 L 60.382812 186.402344 L 59.46875 181.4375 L 55.414062 184.75 C 18.671875 215.042969 12.367188 237.625 39.5625 241.710938 C 44.460938 242.453125 55.308594 242.453125 62.003906 241.710938 C 86.804688 238.964844 123.792969 228.679688 156.875 215.257812 C 206.054688 195.316406 255.691406 165.019531 292.117188 132.679688 L 293.949219 131.199219 L 294.300781 132.46875 L 294.335938 132.996094 L 296.414062 133.703125 C 301.664062 139.058594 305.714844 139.445312 309.238281 136.0625 Z M 310.398438 134.933594 "/></clipPath><clipPath id="c56d847f40"><path d="M 82 210.945312 L 201.957031 210.945312 L 201.957031 262.730469 L 82 262.730469 Z M 82 210.945312 "/></clipPath><clipPath id="a3059dac33"><path d="M 87.191406 261.757812 L 82.15625 260.523438 C 91.207031 259.609375 105.265625 256.402344 115.269531 253.445312 C 140.28125 245.941406 164.449219 234.84375 188.578125 219.730469 C 192.066406 217.546875 196.402344 214.726562 198.195312 213.460938 L 201.648438 210.992188 C 201.648438 211.523438 190.269531 220.257812 184.773438 224.203125 C 155.007812 245.480469 127.667969 258.480469 105.898438 261.757812 C 100.332031 262.566406 91.628906 262.566406 87.191406 261.757812 "/></clipPath><clipPath id="8ef973eb03"><path d="M 126 160.101562 L 271.632812 160.101562 L 271.632812 272 L 126 272 Z M 126 160.101562 "/></clipPath><clipPath id="9be1657083"><path d="M 241.28125 241.535156 C 225.640625 257.179688 206.300781 266.9375 183.683594 270.636719 C 178.539062 271.445312 163.671875 271.796875 158.070312 271.199219 C 151.871094 270.496094 143.382812 268.734375 137.710938 266.9375 C 132.390625 265.246094 126.261719 262.78125 126.296875 262.355469 C 126.296875 262.25 131.792969 259.398438 138.484375 256.085938 C 176.601562 237.238281 213.945312 212.4375 244.207031 185.945312 C 251.710938 179.394531 261.75 169.847656 266.679688 164.667969 L 270.839844 160.40625 L 271.332031 162.414062 C 271.789062 170.269531 271.191406 179.5 270.097656 185.734375 C 267.667969 199.96875 262.242188 213.671875 254.421875 225.402344 C 249.84375 232.238281 246.636719 236.183594 241.246094 241.570312 "/></clipPath><clipPath id="6ad39999f1"><path d="M 22.128906 65.007812 L 350.71875 65.007812 L 350.71875 242.957031 L 22.128906 242.957031 Z M 22.128906 65.007812 "/></clipPath><clipPath id="de7456685b"><path d="M 327.484375 101.257812 C 322.167969 106.222656 313.78125 104.496094 310.71875 97.839844 C 308.144531 92.34375 311.070312 85.332031 316.8125 83.359375 C 320.652344 82.058594 324.28125 82.761719 327.273438 85.367188 C 329.707031 87.515625 330.65625 89.527344 330.902344 92.835938 C 331.148438 96.324219 330.128906 98.824219 327.519531 101.257812 M 345.875 65.851562 C 327.699219 67.050781 309.800781 72.863281 300.078125 80.578125 L 298.316406 81.738281 C 287.570312 82.445312 280.316406 84.59375 272.847656 88.398438 C 267.949219 90.933594 267.070312 91.640625 267.070312 92.976562 C 267.070312 94.351562 267.492188 94.703125 273.375 98.015625 L 278.34375 100.832031 L 277.390625 101.644531 C 274.714844 103.898438 273.761719 107.140625 275.03125 109.992188 L 276.476562 112.460938 C 278.695312 114.960938 278.941406 115.488281 279.152344 117.707031 L 279.433594 120.246094 L 272.917969 125.070312 C 269.394531 127.714844 266.046875 130.144531 265.484375 130.496094 L 264.496094 131.128906 L 262.347656 126.128906 C 256.253906 112.601562 245.753906 98.894531 234.058594 89.242188 C 219.792969 77.511719 202.074219 69.621094 183.753906 66.769531 C 178.996094 66.027344 164.0625 65.5 160.46875 65.921875 C 149.265625 67.226562 142.605469 68.671875 134.574219 71.417969 C 113.261719 78.816406 94.871094 93.222656 82.261719 112.425781 C 76.660156 121.019531 71.410156 132.820312 68.910156 142.472656 C 63.167969 164.597656 64.714844 186.296875 73.59375 208.773438 L 74.085938 210.078125 L 80.253906 209.832031 C 96.773438 209.230469 122.703125 204.089844 153.632812 195.316406 C 163.355469 192.570312 181.253906 187.074219 188.15625 184.785156 L 192.242188 183.480469 C 192.523438 183.726562 180.160156 189.433594 171.28125 193.308594 C 137.144531 208.140625 107.132812 217.40625 79.898438 221.597656 C 72.289062 222.761719 57.988281 222.867188 53.726562 221.773438 C 46.082031 219.871094 42.171875 215.925781 42.945312 210.78125 C 43.648438 206.0625 49.671875 197.289062 57.707031 189.398438 L 60.382812 186.4375 L 59.46875 181.472656 L 55.414062 184.785156 C 18.671875 215.042969 12.367188 237.625 39.5625 241.710938 C 44.460938 242.453125 55.308594 242.453125 62.003906 241.710938 C 86.804688 238.964844 123.792969 228.679688 156.875 215.257812 C 206.054688 195.316406 255.691406 165.019531 292.117188 132.679688 L 293.949219 131.199219 L 294.300781 132.46875 L 294.335938 132.996094 L 296.414062 133.703125 C 301.664062 139.058594 305.714844 139.445312 309.238281 136.0625 L 310.398438 134.933594 L 313.007812 140.324219 C 317.023438 148.570312 317.832031 148.675781 322.132812 141.523438 C 326.710938 133.878906 329.671875 125.597656 330.375 118.378906 L 330.796875 115.59375 C 333.226562 112.847656 334.953125 110.523438 336.152344 108.761719 C 342.035156 100.023438 347.144531 85.367188 349.1875 71.453125 L 350.488281 65.570312 "/></clipPath></defs><g id="bffcc7bb0d"><g clip-rule="nonzero" clip-path="url(#f84313b736)"><g clip-rule="nonzero" clip-path="url(#a248c7069c)"><path style=" stroke:none;fill-rule:nonzero;fill:#ffde59;fill-opacity:1;" d="M 5.179688 48.0625 L 367.667969 48.0625 L 367.667969 289.089844 L 5.179688 289.089844 Z M 5.179688 48.0625 "/></g></g><g clip-rule="nonzero" clip-path="url(#885bbacb07)"><g clip-rule="nonzero" clip-path="url(#54f094bd90)"><path style=" stroke:none;fill-rule:nonzero;fill:#ffde59;fill-opacity:1;" d="M 5.179688 48.0625 L 367.667969 48.0625 L 367.667969 289.089844 L 5.179688 289.089844 Z M 5.179688 48.0625 "/></g></g><g clip-rule="nonzero" clip-path="url(#f1282e72f6)"><g clip-rule="nonzero" clip-path="url(#440ca4ac19)"><path style=" stroke:none;fill-rule:nonzero;fill:#ffde59;fill-opacity:1;" d="M 5.179688 48.0625 L 367.667969 48.0625 L 367.667969 289.089844 L 5.179688 289.089844 Z M 5.179688 48.0625 "/></g></g><g clip-rule="nonzero" clip-path="url(#c56d847f40)"><g clip-rule="nonzero" clip-path="url(#a3059dac33)"><path style=" stroke:none;fill-rule:nonzero;fill:#ffde59;fill-opacity:1;" d="M 5.179688 48.0625 L 367.667969 48.0625 L 367.667969 289.089844 L 5.179688 289.089844 Z M 5.179688 48.0625 "/></g></g><g clip-rule="nonzero" clip-path="url(#8ef973eb03)"><g clip-rule="nonzero" clip-path="url(#9be1657083)"><path style=" stroke:none;fill-rule:nonzero;fill:#ffde59;fill-opacity:1;" d="M 5.179688 48.0625 L 367.667969 48.0625 L 367.667969 289.089844 L 5.179688 289.089844 Z M 5.179688 48.0625 "/></g></g><g clip-rule="nonzero" clip-path="url(#6ad39999f1)"><g clip-rule="nonzero" clip-path="url(#de7456685b)"><path style=" stroke:none;fill-rule:nonzero;fill:#ffde59;fill-opacity:1;" d="M 5.179688 48.0625 L 367.667969 48.0625 L 367.667969 289.089844 L 5.179688 289.089844 Z M 5.179688 48.0625 "/></g></g></g></svg>